ffmpeg version 3.4 Copyright (c) 2000-2017 the FFmpeg developers
  built with gcc 7.2.0 (GCC)
  configuration: --prefix=/usr --disable-debug --disable-static --disable-stripping --enable-avisynth --enable-avresample --enable-fontconfig --enable-gmp --enable-gnutls --enable-gpl --enable-ladspa --enable-libass --enable-libbluray --enable-libfreetype --enable-libfribidi --enable-libgsm --enable-libiec61883 --enable-libmodplug --enable-libmp3lame --enable-libopencore_amrnb --enable-libopencore_amrwb --enable-libopenjpeg --enable-libopus --enable-libpulse --enable-libsoxr --enable-libspeex --enable-libssh --enable-libtheora --enable-libv4l2 --enable-libvidstab --enable-libvorbis --enable-libvpx --enable-libwebp --enable-libx264 --enable-libx265 --enable-libxcb --enable-libxvid --enable-shared --enable-version3
  libavutil      55. 78.100 / 55. 78.100
  libavcodec     57.107.100 / 57.107.100
  libavformat    57. 83.100 / 57. 83.100
  libavdevice    57. 10.100 / 57. 10.100
  libavfilter     6.107.100 /  6.107.100
  libavresample   3.  7.  0 /  3.  7.  0
  libswscale      4.  8.100 /  4.  8.100
  libswresample   2.  9.100 /  2.  9.100
  libpostproc    54.  7.100 / 54.  7.100
Splitting the commandline.
Reading option '-v' ... matched as option 'v' (set logging level) with argument 'debug'.
Reading option '-nostdin' ... matched as option 'stdin' (enable or disable interaction on standard input) with argument 0.
Reading option '-progress' ... matched as option 'progress' (write program-readable progress information) with argument '/tmp/KritaFFmpegProgress.QL6034'.
Reading option '-r' ... matched as option 'r' (set frame rate (Hz value, fraction or abbreviation)) with argument '10'.
Reading option '-start_number' ... matched as AVOption 'start_number' with argument '0'.
Reading option '-i' ... matched as input url with argument '/run/media/italo/Data/Ítalo/Games/Unity Projects/Grupo2/Assets/Art/Sprites/Effects/Slash%04d.png'.
Reading option '-vf' ... matched as option 'vf' (set video filters) with argument 'palettegen'.
Reading option '-y' ... matched as option 'y' (overwrite output files) with argument '1'.
Reading option '/run/media/italo/Data/Ítalo/Games/Unity Projects/Grupo2/Assets/Art/Sprites/Effects/palette.png' ... matched as output url.
Finished splitting the commandline.
Parsing a group of options: global .
Applying option v (set logging level) with argument debug.
Applying option nostdin (enable or disable interaction on standard input) with argument 0.
Applying option progress (write program-readable progress information) with argument /tmp/KritaFFmpegProgress.QL6034.
[file @ 0x557a14751c80] Setting default whitelist 'file,crypto'
Applying option y (overwrite output files) with argument 1.
Successfully parsed a group of options.
Parsing a group of options: input url /run/media/italo/Data/Ítalo/Games/Unity Projects/Grupo2/Assets/Art/Sprites/Effects/Slash%04d.png.
Applying option r (set frame rate (Hz value, fraction or abbreviation)) with argument 10.
Successfully parsed a group of options.
Opening an input file: /run/media/italo/Data/Ítalo/Games/Unity Projects/Grupo2/Assets/Art/Sprites/Effects/Slash%04d.png.
[image2 @ 0x557a147520e0] Opening '/run/media/italo/Data/Ítalo/Games/Unity Projects/Grupo2/Assets/Art/Sprites/Effects/Slash0000.png' for reading
[file @ 0x557a14757860] Setting default whitelist 'file,crypto'
[AVIOContext @ 0x557a1475f9e0] Statistics: 2822 bytes read, 0 seeks
[image2 @ 0x557a147520e0] Opening '/run/media/italo/Data/Ítalo/Games/Unity Projects/Grupo2/Assets/Art/Sprites/Effects/Slash0001.png' for reading
[file @ 0x557a14758260] Setting default whitelist 'file,crypto'
[AVIOContext @ 0x557a147584c0] Statistics: 2913 bytes read, 0 seeks
[image2 @ 0x557a147520e0] Opening '/run/media/italo/Data/Ítalo/Games/Unity Projects/Grupo2/Assets/Art/Sprites/Effects/Slash0002.png' for reading
[file @ 0x557a14757f20] Setting default whitelist 'file,crypto'
[AVIOContext @ 0x557a14759660] Statistics: 2913 bytes read, 0 seeks
[image2 @ 0x557a147520e0] Opening '/run/media/italo/Data/Ítalo/Games/Unity Projects/Grupo2/Assets/Art/Sprites/Effects/Slash0003.png' for reading
[file @ 0x557a14759ba0] Setting default whitelist 'file,crypto'
[AVIOContext @ 0x557a1475e880] Statistics: 2822 bytes read, 0 seeks
[image2 @ 0x557a147520e0] Opening '/run/media/italo/Data/Ítalo/Games/Unity Projects/Grupo2/Assets/Art/Sprites/Effects/Slash0004.png' for reading
[file @ 0x557a1475f8c0] Setting default whitelist 'file,crypto'
[AVIOContext @ 0x557a147686a0] Statistics: 2858 bytes read, 0 seeks
[image2 @ 0x557a147520e0] Opening '/run/media/italo/Data/Ítalo/Games/Unity Projects/Grupo2/Assets/Art/Sprites/Effects/Slash0005.png' for reading
[file @ 0x557a147608e0] Setting default whitelist 'file,crypto'
[AVIOContext @ 0x557a14760b00] Statistics: 2753 bytes read, 0 seeks
Input #0, image2, from '/run/media/italo/Data/Ítalo/Games/Unity Projects/Grupo2/Assets/Art/Sprites/Effects/Slash%04d.png':
  Duration: 00:00:00.24, start: 0.000000, bitrate: N/A
    Stream #0:0, 6, 1/25: Video: png, 1 reference frame, rgba(pc), 256x256 [SAR 15748:15748 DAR 1:1], 0/1, 25 fps, 25 tbr, 25 tbn, 25 tbc
Successfully opened the file.
Parsing a group of options: output url /run/media/italo/Data/Ítalo/Games/Unity Projects/Grupo2/Assets/Art/Sprites/Effects/palette.png.
Applying option vf (set video filters) with argument palettegen.
Successfully parsed a group of options.
Opening an output file: /run/media/italo/Data/Ítalo/Games/Unity Projects/Grupo2/Assets/Art/Sprites/Effects/palette.png.
Successfully opened the file.
detected 4 logical cores
Stream mapping:
  Stream #0:0 -> #0:0 (png (native) -> png (native))
cur_dts is invalid (this is harmless if it occurs once at the start per stream)
    Last message repeated 4 times
[graph 0 input from stream 0:0 @ 0x557a14759560] Setting 'video_size' to value '256x256'
[graph 0 input from stream 0:0 @ 0x557a14759560] Setting 'pix_fmt' to value '28'
[graph 0 input from stream 0:0 @ 0x557a14759560] Setting 'time_base' to value '1/10'
[graph 0 input from stream 0:0 @ 0x557a14759560] Setting 'pixel_aspect' to value '15748/15748'
[graph 0 input from stream 0:0 @ 0x557a14759560] Setting 'sws_param' to value 'flags=2'
[graph 0 input from stream 0:0 @ 0x557a14759560] Setting 'frame_rate' to value '10/1'
[graph 0 input from stream 0:0 @ 0x557a14759560] w:256 h:256 pixfmt:rgba tb:1/10 fr:10/1 sar:15748/15748 sws_param:flags=2
[format @ 0x557a1476e840] compat: called with args=[rgb24|rgba|rgb48be|rgba64be|pal8|gray|ya8|gray16be|ya16be|monob]
[format @ 0x557a1476e840] Setting 'pix_fmts' to value 'rgb24|rgba|rgb48be|rgba64be|pal8|gray|ya8|gray16be|ya16be|monob'
[auto_scaler_0 @ 0x557a14770240] Setting 'flags' to value 'bicubic'
[auto_scaler_0 @ 0x557a14770240] w:iw h:ih flags:'bicubic' interl:0
[Parsed_palettegen_0 @ 0x557a1476e0c0] auto-inserting filter 'auto_scaler_0' between the filter 'graph 0 input from stream 0:0' and the filter 'Parsed_palettegen_0'
[auto_scaler_1 @ 0x557a14771e00] Setting 'flags' to value 'bicubic'
[auto_scaler_1 @ 0x557a14771e00] w:iw h:ih flags:'bicubic' interl:0
[format @ 0x557a1476e840] auto-inserting filter 'auto_scaler_1' between the filter 'Parsed_palettegen_0' and the filter 'format'
[AVFilterGraph @ 0x557a1476d660] query_formats: 4 queried, 1 merged, 2 already done, 0 delayed
[auto_scaler_1 @ 0x557a14771e00] picking rgba out of 9 ref:bgra alpha:1
[swscaler @ 0x557a14772bc0] Forcing full internal H chroma due to input having non subsampled chroma
[auto_scaler_0 @ 0x557a14770240] w:256 h:256 fmt:rgba sar:15748/15748 -> w:256 h:256 fmt:bgra sar:1/1 flags:0x4
[swscaler @ 0x557a1478a1c0] Forcing full internal H chroma due to input having non subsampled chroma
[auto_scaler_1 @ 0x557a14771e00] w:16 h:16 fmt:bgra sar:1/1 -> w:16 h:16 fmt:rgba sar:1/1 flags:0x4
Output #0, image2, to '/run/media/italo/Data/Ítalo/Games/Unity Projects/Grupo2/Assets/Art/Sprites/Effects/palette.png':
  Metadata:
    encoder         : Lavf57.83.100
    Stream #0:0, 0, 1/10: Video: png, 1 reference frame, rgba, 16x16 [SAR 1:1 DAR 1:1], 0/1, q=2-31, 200 kb/s, 10 fps, 10 tbn, 10 tbc
    Metadata:
      encoder         : Lavc57.107.100 png
cur_dts is invalid (this is harmless if it occurs once at the start per stream)
    Last message repeated 5 times
[Parsed_palettegen_0 @ 0x557a1476e0c0] 25(+1) colors generated out of 25 colors; ratio=1.000000
[swscaler @ 0x557a1478a1c0] Forcing full internal H chroma due to input having non subsampled chroma
[auto_scaler_1 @ 0x557a14771e00] w:16 h:16 fmt:bgra sar:0/1 -> w:16 h:16 fmt:rgba sar:0/1 flags:0x4
cur_dts is invalid (this is harmless if it occurs once at the start per stream)
Clipping frame in rate conversion by 0.000008
cur_dts is invalid (this is harmless if it occurs once at the start per stream)
[out_0_0 @ 0x557a1476e5e0] EOF on sink link out_0_0:default.
No more output streams to write to, finishing.
[image2 @ 0x557a1475a760] Opening '/run/media/italo/Data/Ítalo/Games/Unity Projects/Grupo2/Assets/Art/Sprites/Effects/palette.png' for writing
[file @ 0x557a147603a0] Setting default whitelist 'file,crypto'
[AVIOContext @ 0x557a14797c00] Statistics: 0 seeks, 1 writeouts
frame=    1 fps=0.0 q=-0.0 Lsize=N/A time=00:00:00.10 bitrate=N/A speed=6.45x    
[AVIOContext @ 0x557a14751fa0] Statistics: 0 seeks, 1 writeouts
video:0kB audio:0kB subtitle:0kB other streams:0kB global headers:0kB muxing overhead: unknown
Input file #0 (/run/media/italo/Data/Ítalo/Games/Unity Projects/Grupo2/Assets/Art/Sprites/Effects/Slash%04d.png):
  Input stream #0:0 (video): 6 packets read (17081 bytes); 6 frames decoded; 
  Total: 6 packets (17081 bytes) demuxed
Output file #0 (/run/media/italo/Data/Ítalo/Games/Unity Projects/Grupo2/Assets/Art/Sprites/Effects/palette.png):
  Output stream #0:0 (video): 1 frames encoded; 1 packets muxed (190 bytes); 
  Total: 1 packets (190 bytes) muxed
6 frames successfully decoded, 0 decoding errors
